<svg width="30" height="30" viewBox="0 0 30 30" fill="none" xmlns="http://www.w3.org/2000/svg">
<path d="M25 18.7501H22.5V25.0001H7.5V5.00006H22.5V11.2501H25V3.75006C25 3.41854 24.8683 3.1006 24.6339 2.86618C24.3995 2.63176 24.0815 2.50006 23.75 2.50006H6.25C5.91848 2.50006 5.60054 2.63176 5.36612 2.86618C5.1317 3.1006 5 3.41854 5 3.75006V26.2501C5 26.5816 5.1317 26.8995 5.36612 27.1339C5.60054 27.3684 5.91848 27.5001 6.25 27.5001H23.75C24.0815 27.5001 24.3995 27.3684 24.6339 27.1339C24.8683 26.8995 25 26.5816 25 26.2501V18.7501ZM17.5 13.7501V10.0001L11.25 15.0001L17.5 20.0001V16.2501H27.5V13.7501H17.5Z" fill="currentColor"/>

</svg>
