<svg width="30" height="30" viewBox="0 0 30 30" fill="none" xmlns="http://www.w3.org/2000/svg">
<path d="M2.5 15.0001C2.5 13.9188 2.6375 12.8713 2.895 11.8701C3.58558 11.9064 4.27275 11.751 4.88055 11.4212C5.48835 11.0913 5.9931 10.5998 6.33901 10.001C6.68492 9.4022 6.85851 8.71941 6.84059 8.0281C6.82268 7.3368 6.61396 6.66391 6.2375 6.08383C7.74868 4.59704 9.61349 3.51945 11.6562 2.95258C11.97 3.56942 12.4483 4.08741 13.0382 4.44921C13.6282 4.81102 14.3067 5.00252 14.9987 5.00252C15.6908 5.00252 16.3693 4.81102 16.9593 4.44921C17.5492 4.08741 18.0275 3.56942 18.3413 2.95258C20.384 3.51945 22.2488 4.59704 23.76 6.08383C23.3831 6.66402 23.1741 7.33716 23.156 8.02878C23.138 8.7204 23.3116 9.40353 23.6577 10.0026C24.0038 10.6017 24.5089 11.0933 25.1171 11.4231C25.7253 11.7529 26.4129 11.908 27.1038 11.8713C27.3613 12.8713 27.4988 13.9188 27.4988 15.0001C27.4988 16.0813 27.3613 17.1288 27.1038 18.1301C26.4131 18.0935 25.7257 18.2487 25.1177 18.5785C24.5098 18.9082 24.0048 19.3997 23.6588 19.9986C23.3127 20.5974 23.139 21.2803 23.1569 21.9717C23.1747 22.6631 23.3835 23.3361 23.76 23.9163C22.2488 25.4031 20.384 26.4807 18.3413 27.0476C18.0275 26.4307 17.5492 25.9127 16.9593 25.5509C16.3693 25.1891 15.6908 24.9976 14.9987 24.9976C14.3067 24.9976 13.6282 25.1891 13.0382 25.5509C12.4483 25.9127 11.97 26.4307 11.6562 27.0476C9.61349 26.4807 7.74868 25.4031 6.2375 23.9163C6.61438 23.3361 6.82341 22.663 6.84146 21.9714C6.85951 21.2798 6.68587 20.5966 6.33976 19.9976C5.99366 19.3985 5.48857 18.9069 4.88038 18.5771C4.2722 18.2472 3.58463 18.0921 2.89375 18.1288C2.6375 17.1301 2.5 16.0826 2.5 15.0001ZM8.505 18.7501C9.2925 20.1138 9.5175 21.6826 9.21 23.1551C9.72 23.5176 10.2625 23.8313 10.8312 24.0926C11.9771 23.0661 13.4616 22.499 15 22.5001C16.575 22.5001 18.0475 23.0888 19.1688 24.0926C19.7375 23.8313 20.28 23.5176 20.79 23.1551C20.4743 21.65 20.7253 20.0814 21.495 18.7501C22.2633 17.418 23.4963 16.4165 24.9575 15.9376C25.0153 15.3139 25.0153 14.6862 24.9575 14.0626C23.4958 13.5839 22.2623 12.5823 21.4937 11.2501C20.7241 9.91874 20.473 8.35012 20.7888 6.84508C20.2789 6.48248 19.7361 6.1686 19.1675 5.90758C18.022 6.93374 16.5379 7.50084 15 7.50008C13.4616 7.50114 11.9771 6.93403 10.8312 5.90758C10.2627 6.16861 9.71986 6.48249 9.21 6.84508C9.52571 8.35012 9.27466 9.91874 8.505 11.2501C7.73671 12.5821 6.50373 13.5836 5.0425 14.0626C4.98469 14.6862 4.98469 15.3139 5.0425 15.9376C6.50419 16.4163 7.73766 17.4178 8.50625 18.7501H8.505ZM15 18.7501C14.0054 18.7501 13.0516 18.355 12.3483 17.6517C11.6451 16.9485 11.25 15.9946 11.25 15.0001C11.25 14.0055 11.6451 13.0517 12.3483 12.3484C13.0516 11.6452 14.0054 11.2501 15 11.2501C15.9946 11.2501 16.9484 11.6452 17.6517 12.3484C18.3549 13.0517 18.75 14.0055 18.75 15.0001C18.75 15.9946 18.3549 16.9485 17.6517 17.6517C16.9484 18.355 15.9946 18.7501 15 18.7501ZM15 16.2501C15.3315 16.2501 15.6495 16.1184 15.8839 15.884C16.1183 15.6495 16.25 15.3316 16.25 15.0001C16.25 14.6686 16.1183 14.3506 15.8839 14.1162C15.6495 13.8818 15.3315 13.7501 15 13.7501C14.6685 13.7501 14.3505 13.8818 14.1161 14.1162C13.8817 14.3506 13.75 14.6686 13.75 15.0001C13.75 15.3316 13.8817 15.6495 14.1161 15.884C14.3505 16.1184 14.6685 16.2501 15 16.2501V16.2501Z" fill="currentColor"/>

</svg>
