<svg width="20" height="20" viewBox="0 0 20 20" fill="none" xmlns="http://www.w3.org/2000/svg">
<path d="M9.99996 9.16666V6.66666L13.3333 10L9.99996 13.3333V10.8333H6.66663V9.16666H9.99996ZM9.99996 1.66666C14.6 1.66666 18.3333 5.4 18.3333 10C18.3333 14.6 14.6 18.3333 9.99996 18.3333C5.39996 18.3333 1.66663 14.6 1.66663 10C1.66663 5.4 5.39996 1.66666 9.99996 1.66666ZM9.99996 16.6667C13.6833 16.6667 16.6666 13.6833 16.6666 10C16.6666 6.31666 13.6833 3.33333 9.99996 3.33333C6.31663 3.33333 3.33329 6.31666 3.33329 10C3.33329 13.6833 6.31663 16.6667 9.99996 16.6667Z" fill="currentColor"/>
</svg>
